<?xml version="1.0" standalone="no"?>
<!DOCTYPE svg PUBLIC "-//W3C//DTD SVG 20010904//EN"
 "http://www.w3.org/TR/2001/REC-SVG-20010904/DTD/svg10.dtd">
<svg version="1.0" xmlns="http://www.w3.org/2000/svg"
 width="1000.000000pt" height="1002.000000pt" viewBox="0 0 1000.000000 1002.000000"
 preserveAspectRatio="xMidYMid meet">

<g transform="translate(0.000000,1002.000000) scale(0.100000,-0.100000)"
fill="#000000" stroke="none">
<path d="M2269 8929 c-440 -65 -808 -359 -967 -775 -17 -44 -41 -125 -53 -180
-23 -99 -23 -101 -24 -1024 0 -509 2 -1726 5 -2705 l6 -1780 26 -100 c128
-484 503 -830 984 -910 90 -14 342 -16 2769 -13 l2670 4 85 21 c114 29 238 75
319 119 275 150 486 403 580 692 60 184 56 -6 56 2907 0 2588 -1 2683 -19
2770 -73 347 -261 620 -556 807 -106 66 -207 110 -339 147 l-96 26 -2695 1
c-1482 1 -2720 -2 -2751 -7z m5392 -134 c412 -77 749 -356 880 -733 55 -157
61 -204 69 -607 7 -335 6 -4292 -1 -4420 -2 -46 -3 -47 -6 -12 -6 56 -23 34
-24 -31 0 -41 -3 -51 -9 -37 -8 18 -9 17 -9 -8 -1 -16 3 -26 9 -22 6 4 9 -17
8 -57 l-1 -63 -7 50 -7 50 -1 -47 c-3 -79 -22 -55 -22 27 l0 75 -542 1 c-531
1 -669 6 -620 23 14 5 22 15 22 30 0 13 3 39 6 57 4 27 3 31 -6 19 -9 -12 -10
-8 -4 20 3 19 8 59 9 90 3 57 33 164 34 123 1 -13 5 -23 11 -23 5 0 10 10 10
23 3 117 11 186 29 267 12 52 24 124 27 160 2 36 8 85 14 110 5 25 9 68 8 95
0 28 0 129 1 225 0 96 -4 211 -9 255 -6 44 -10 99 -10 123 1 45 -6 52 -26 25
-10 -15 -10 -10 -2 29 6 26 14 46 17 44 3 -2 6 8 7 22 0 15 10 77 22 137 34
181 45 341 39 550 -10 315 -57 548 -167 829 -70 179 -219 454 -240 441 -5 -3
-14 4 -21 17 -45 84 -190 258 -339 408 -387 388 -854 624 -1411 711 -202 32
-541 32 -739 0 -250 -40 -488 -114 -711 -218 -141 -67 -229 -119 -381 -224
-70 -49 -132 -89 -138 -89 -5 0 -10 -7 -10 -15 0 -9 -6 -12 -17 -8 -12 5 -14
3 -8 -8 4 -8 5 -11 0 -7 -4 4 -13 2 -20 -5 -6 -7 -24 -21 -40 -32 -15 -11 -36
-29 -47 -40 -12 -11 -19 -15 -17 -8 10 30 240 217 389 316 360 238 806 378
1281 404 l147 8 -165 460 c-90 253 -166 470 -169 483 l-6 22 1415 0 c1233 0
1426 -2 1498 -15z m-5528 -597 c40 -21 81 -87 65 -104 -5 -4 -148 -36 -220
-48 l-37 -7 3 45 c1 24 10 55 18 68 32 49 121 73 171 46z m103 -163 c-11 -8
-25 -15 -31 -15 -7 0 -24 -11 -39 -25 -54 -50 -75 -54 -156 -28 -32 10 -46 19
-38 24 11 6 168 39 248 52 14 2 27 5 30 5 3 1 -4 -5 -14 -13z m2734 -664 c0
-4 -11 -6 -25 -3 -14 2 -25 6 -25 8 0 2 11 4 25 4 14 0 25 -4 25 -9z m-165
-11 c-11 -5 -29 -9 -40 -9 -17 -1 -17 1 -5 9 8 5 26 9 40 9 23 0 23 -1 5 -9z
m15 -50 c0 -5 -15 -10 -32 -9 -31 1 -32 1 -8 9 35 11 40 11 40 0z m150 2 c0
-10 -36 -9 -46 1 -4 4 5 7 19 7 15 0 27 -4 27 -8z m610 -11 c14 -4 20 -9 15
-13 -6 -3 -26 0 -45 8 -37 13 -14 17 30 5z m-437 -18 c-7 -2 -21 -2 -30 0 -10
3 -4 5 12 5 17 0 24 -2 18 -5z m-719 -29 c3 -8 2 -12 -4 -9 -6 3 -10 10 -10
16 0 14 7 11 14 -7z m496 6 c0 -5 -5 -10 -11 -10 -5 0 -7 5 -4 10 3 6 8 10 11
10 2 0 4 -4 4 -10z m80 0 c0 -5 -4 -10 -9 -10 -6 0 -13 5 -16 10 -3 6 1 10 9
10 9 0 16 -4 16 -10z m90 0 c0 -5 -7 -10 -15 -10 -8 0 -15 5 -15 10 0 6 7 10
15 10 8 0 15 -4 15 -10z m-260 -10 c-8 -5 -33 -9 -55 -9 -39 1 -39 2 -10 9 17
4 41 8 55 9 20 0 22 -1 10 -9z m347 4 c-3 -3 -12 -4 -19 -1 -8 3 -5 6 6 6 11
1 17 -2 13 -5z m383 -4 l25 -8 -25 -1 c-14 0 -32 4 -40 9 -13 9 -13 10 0 9 8
-1 26 -5 40 -9z m-890 -20 c0 -5 -4 -10 -10 -10 -5 0 -10 5 -10 10 0 6 5 10
10 10 6 0 10 -4 10 -10z m726 0 c8 0 14 -4 14 -9 0 -10 -77 3 -88 14 -4 4 8 5
27 1 18 -3 40 -6 47 -6z m-1106 -11 c0 -4 -18 -6 -39 -5 -22 0 -37 4 -35 8 6
9 74 6 74 -3z m330 -1 c0 -4 -4 -8 -9 -8 -6 0 -12 4 -15 8 -3 5 1 9 9 9 8 0
15 -4 15 -9z m-50 -8 c0 -5 -5 -10 -11 -10 -5 0 -7 5 -4 10 3 6 8 10 11 10 2
0 4 -4 4 -10z m-110 -11 c0 -6 7 -9 15 -5 8 3 15 1 15 -4 0 -13 -27 -13 -36 1
-3 6 -17 8 -31 4 -16 -4 -22 -2 -18 5 8 14 55 13 55 -1z m1083 -5 c15 -4 27
-10 27 -15 0 -4 -21 -2 -46 6 -48 14 -78 33 -34 21 14 -3 37 -9 53 -12z m331
0 c9 -3 16 -11 16 -17 0 -8 -3 -8 -11 0 -6 6 -18 9 -27 6 -10 -4 -13 -2 -8 5
8 14 9 14 30 6z m-1479 -34 c-3 -5 -11 -10 -16 -10 -6 0 -7 5 -4 10 3 6 11 10
16 10 6 0 7 -4 4 -10z m1475 -41 c0 -14 -5 -11 -31 17 l-24 27 28 -18 c15 -9
27 -21 27 -26z m45 31 c3 -5 2 -10 -4 -10 -5 0 -13 5 -16 10 -3 6 -2 10 4 10
5 0 13 -4 16 -10z m-1649 -27 c38 6 36 -6 -3 -17 -15 -5 -28 0 -45 16 -13 13
-16 17 -6 9 11 -9 30 -12 54 -8z m1459 7 c3 -5 2 -10 -4 -10 -5 0 -13 5 -16
10 -3 6 -2 10 4 10 5 0 13 -4 16 -10z m148 -46 c30 5 31 5 13 -9 -23 -18 -53
-11 -81 17 l-20 20 28 -17 c18 -12 38 -16 60 -11z m95 -388 c301 -198 541
-502 657 -833 61 -175 87 -316 93 -510 7 -249 -22 -436 -98 -643 -50 -134
-170 -360 -192 -360 -4 0 -7 -4 -6 -9 2 -5 -8 -21 -22 -37 -14 -16 -27 -33
-29 -39 -8 -25 -203 -235 -218 -235 -3 0 -16 -12 -29 -27 -13 -16 -24 -25 -24
-20 0 4 -8 -1 -18 -10 -34 -33 -67 -58 -122 -94 -97 -63 -127 -79 -133 -72 -4
3 -7 2 -7 -4 0 -6 -48 -31 -107 -56 -258 -107 -423 -141 -683 -140 -283 0
-515 55 -755 178 -113 58 -176 95 -202 118 -41 37 -24 38 27 2 170 -119 388
-209 640 -261 122 -26 458 -26 585 -1 307 62 551 175 770 357 299 249 494 572
576 956 27 126 37 401 19 540 -63 507 -353 955 -795 1227 -33 20 -51 37 -41
37 9 0 61 -29 114 -64z m-1044 -338 c9 -95 19 -185 21 -199 4 -24 1 -26 -81
-42 -195 -37 -382 -153 -500 -310 -25 -34 -50 -62 -55 -62 -13 0 -240 159
-280 197 -19 18 -33 32 -31 31 7 -3 24 17 54 63 43 67 137 163 231 236 49 37
93 68 98 68 6 0 18 8 29 18 39 36 266 134 340 146 19 3 51 9 70 12 19 3 37 8
39 10 2 2 14 4 26 4 21 0 22 -7 39 -172z m-3582 -721 c2 -361 0 -657 -4 -657
-5 0 -7 327 -6 728 1 400 3 696 5 657 1 -38 4 -366 5 -728z m5678 606 c-17 48
-1 29 34 -42 20 -38 53 -123 76 -190 40 -120 52 -173 25 -116 -7 17 -14 24
-14 17 -1 -7 -5 -11 -9 -8 -5 3 -20 -1 -34 -8 -14 -8 -64 -14 -114 -15 -67 -1
-91 -6 -97 -17 -5 -9 -16 -13 -28 -9 -12 4 -19 2 -19 -6 0 -14 -8 -9 -10 6 -1
6 -7 17 -14 25 -7 8 -19 31 -26 50 -7 19 -33 76 -56 127 -24 51 -44 104 -46
118 -3 25 -1 26 62 30 36 2 96 12 134 21 58 14 70 15 77 3 7 -12 9 -12 9 0 0
10 3 11 14 2 12 -10 13 -8 9 8 -3 12 -10 18 -16 14 -6 -4 -7 -1 -2 7 5 9 14 4
31 -16 l24 -29 -10 28z m-4436 -247 c-3 -15 -8 -25 -11 -23 -2 3 -1 17 3 31 3
15 8 25 11 23 2 -3 1 -17 -3 -31z m-17 -58 c-3 -8 -6 -5 -6 6 -1 11 2 17 5 13
3 -3 4 -12 1 -19z m4580 -70 c-3 -8 -6 -5 -6 6 -1 11 2 17 5 13 3 -3 4 -12 1
-19z m-4603 -31 c-4 -12 -11 -38 -15 -57 -8 -33 -7 -18 3 77 1 7 5 10 10 7 5
-3 6 -15 2 -27z m4633 1 c-3 -8 -6 -5 -6 6 -1 11 2 17 5 13 3 -3 4 -12 1 -19z
m-2969 -135 c34 -19 62 -37 62 -40 0 -4 -11 -34 -24 -67 -13 -34 -32 -97 -41
-141 -9 -44 -18 -81 -20 -83 -2 -2 -86 9 -188 24 -174 26 -185 28 -182 48 10
90 33 185 63 266 19 52 39 105 43 118 9 23 9 23 116 -34 60 -31 136 -72 171
-91z m1037 117 c75 -26 138 -67 196 -127 45 -47 109 -143 109 -164 0 -5 7 -23
15 -39 9 -17 11 -30 5 -30 -5 0 -10 7 -10 15 0 8 -4 15 -9 15 -5 0 -11 6 -14
13 -2 6 -2 -1 0 -18 3 -24 2 -27 -7 -15 -8 12 -10 10 -6 -10 28 -140 28 -197
0 -300 -28 -101 -28 -98 -2 -96 18 1 24 -5 26 -28 2 -17 11 -30 22 -33 22 -6
30 -53 16 -98 -19 -64 -103 -151 -164 -170 -13 -4 -40 -4 -59 0 -31 5 -34 9
-29 30 6 23 4 24 -20 15 -42 -17 -54 -12 -54 19 0 18 -6 31 -17 35 -12 5 -14
9 -5 18 7 7 12 18 12 26 0 7 11 37 25 67 18 36 24 62 19 79 -3 14 -8 26 -10
26 -2 0 -26 -16 -53 -35 -59 -43 -168 -70 -240 -59 -157 23 -285 157 -286 299
l0 60 65 8 c38 5 91 4 129 -2 36 -6 67 -9 69 -7 4 5 -17 86 -23 86 -2 0 -23
-13 -46 -29 -29 -20 -51 -27 -73 -24 -107 12 -50 170 75 206 13 4 17 27 22
117 3 62 9 115 12 119 4 3 52 7 108 9 56 2 109 6 117 9 8 3 24 5 35 4 29 -4 6
16 -25 22 -20 3 -21 5 -4 6 11 0 47 -8 79 -19z m-2367 -58 l-4 -27 66 8 c36 4
91 10 123 13 31 3 57 10 57 15 0 4 7 6 15 3 8 -4 15 -1 15 6 0 10 3 10 15 0
17 -14 20 -85 6 -140 -5 -19 -17 -81 -27 -136 -13 -73 -22 -100 -31 -97 -7 3
-13 0 -13 -6 0 -14 -27 -14 -32 0 -3 8 -20 8 -63 0 -32 -6 -73 -11 -91 -11
-25 0 -34 -5 -40 -22 -6 -19 -7 -19 -16 -5 -15 27 -28 20 -29 -15 0 -18 -3
-27 -6 -21 -13 34 37 463 55 463 2 0 2 -12 0 -28z m1879 22 c-4 -4 2 -19 12
-33 26 -38 11 -83 -52 -146 -54 -54 -103 -74 -122 -51 -15 19 -43 26 -49 13
-3 -7 -3 -1 0 13 12 49 118 165 178 194 34 17 43 19 33 10z m-2242 -109 c-4
-25 -9 -44 -12 -41 -2 2 -1 25 2 51 4 25 9 44 12 41 2 -2 1 -25 -2 -51z m-13
-85 c-2 -16 -6 -30 -8 -30 -2 0 -4 14 -4 30 0 17 4 30 8 30 5 0 7 -13 4 -30z
m-10 -152 c-2 -57 -6 -106 -10 -110 -6 -6 -7 39 -3 190 1 12 4 22 9 22 4 0 6
-46 4 -102z m4345 -50 c-3 -8 -6 -5 -6 6 -1 11 2 17 5 13 3 -3 4 -12 1 -19z
m-3618 -388 c88 -481 339 -892 714 -1169 117 -86 190 -129 319 -190 595 -282
1309 -210 1844 186 119 88 313 286 396 403 206 292 302 563 342 965 2 22 3 3
2 -43 -2 -56 1 -85 9 -90 7 -4 14 -14 17 -22 3 -8 6 3 6 25 1 22 6 67 11 100
9 54 9 50 5 -35 -11 -185 -69 -428 -141 -589 -13 -29 -22 -56 -19 -59 3 -3 8
2 12 11 3 9 12 13 19 11 10 -4 12 1 8 18 l-6 23 21 -25 21 -25 -5 25 c-2 14
-2 19 2 13 8 -18 33 -16 40 2 5 13 9 13 22 3 12 -11 16 -10 20 1 3 9 7 10 11
2 9 -15 99 -17 113 -3 19 19 36 14 46 -15 6 -16 11 -21 11 -12 1 19 38 64 54
64 6 0 15 15 19 34 5 18 11 31 14 28 8 -8 -45 -154 -101 -277 -129 -287 -322
-545 -560 -750 -331 -284 -668 -440 -1116 -517 -148 -25 -519 -25 -674 0 -394
66 -752 225 -1060 474 -155 125 -277 257 -401 433 -89 126 -94 135 -83 151 8
11 9 10 7 -6 -2 -11 2 -20 9 -20 7 0 18 -6 25 -12 6 -7 19 -13 27 -14 11 0 12
-2 4 -6 -10 -3 -10 -8 1 -19 20 -19 27 -18 19 4 -4 11 1 9 16 -8 12 -14 20
-19 16 -12 -8 15 10 33 48 50 35 15 37 15 37 -3 0 -8 5 -15 11 -15 5 0 7 4 4
10 -3 6 1 7 9 4 9 -3 16 -1 16 5 0 9 5 9 21 1 11 -7 23 -9 27 -6 3 3 0 6 -6 6
-6 0 -9 7 -5 16 4 12 7 13 14 3 6 -11 9 -10 14 3 6 14 10 15 25 6 10 -7 17
-15 14 -19 -2 -4 1 -11 7 -15 21 -13 29 20 10 41 -35 38 -131 193 -180 292
-85 170 -144 354 -176 548 -14 82 -19 188 -8 140 3 -11 9 -24 14 -29 5 -6 9
-15 9 -20 0 -6 -5 -4 -10 4 -7 11 -10 11 -10 2 0 -20 20 -53 29 -47 5 2 7 87
6 187 l-3 183 8 -170 c4 -93 13 -199 19 -235z m-742 278 c-3 -8 -6 -5 -6 6 -1
11 2 17 5 13 3 -3 4 -12 1 -19z m-174 -85 c-13 -2 -33 -2 -45 0 -13 2 -3 4 22
4 25 0 35 -2 23 -4z m57 -13 c0 -21 -15 -27 -25 -10 -7 12 2 30 16 30 5 0 9
-9 9 -20z m3890 -124 c0 -12 4 -26 10 -32 14 -14 -4 -72 -30 -96 -11 -10 -20
-23 -20 -28 0 -15 -51 -70 -60 -65 -5 3 -7 12 -3 20 6 18 -13 20 -23 3 -5 -7
-11 -5 -21 7 -9 13 -13 15 -13 5 0 -10 -3 -11 -10 -4 -12 12 4 103 26 146 17
33 66 62 81 47 6 -6 14 -1 23 16 10 19 16 22 27 14 7 -6 13 -21 13 -33z
m-4152 7 c-126 -2 -330 -2 -455 0 -126 1 -23 2 227 2 250 0 353 -1 228 -2z
m5399 -25 c-3 -8 -6 -5 -6 6 -1 11 2 17 5 13 3 -3 4 -12 1 -19z m-6077 -8 c0
-11 -4 -20 -10 -20 -5 0 -10 9 -10 20 0 11 5 20 10 20 6 0 10 -9 10 -20z
m3848 -14 c-10 -7 -18 -17 -18 -21 0 -4 8 -4 18 0 12 4 14 3 6 -5 -6 -6 -18
-8 -28 -4 -16 6 -16 8 0 25 9 11 22 19 28 19 6 0 3 -7 -6 -14z m2207 -165
c-80 -471 -308 -923 -643 -1272 -286 -298 -629 -519 -1007 -647 -350 -119
-795 -157 -1161 -98 -277 44 -490 111 -734 232 -548 272 -976 739 -1197 1307
-41 108 -39 132 5 46 31 -62 38 -75 95 -170 15 -25 27 -54 27 -64 0 -10 3 -15
6 -12 4 4 14 -6 23 -21 51 -89 67 -112 79 -112 7 0 17 -10 22 -22 5 -13 34
-50 64 -83 34 -36 54 -66 50 -75 -3 -8 -2 -11 2 -7 4 3 22 -7 41 -23 18 -17
38 -30 43 -30 6 0 10 -6 10 -12 0 -21 233 -218 258 -218 6 0 12 -4 12 -10 0
-5 7 -10 15 -10 8 0 15 -4 15 -8 0 -8 143 -113 165 -121 5 -2 26 -16 45 -31
80 -62 379 -219 440 -232 8 -2 17 -5 20 -8 9 -9 221 -77 306 -99 154 -40 354
-62 559 -62 105 0 224 5 265 11 260 37 450 86 636 166 119 50 276 131 285 146
3 5 8 9 10 7 2 -1 31 16 65 37 237 154 433 337 637 597 12 15 27 33 33 40 5 7
13 20 17 30 3 9 11 17 17 17 5 0 10 6 10 14 0 7 7 19 15 26 8 7 12 16 9 21 -3
5 2 6 10 3 12 -4 16 0 16 15 0 12 7 24 15 27 8 4 15 12 15 20 0 7 6 17 13 21
8 4 17 15 20 23 4 8 18 33 32 55 14 22 30 50 35 63 5 12 14 22 20 22 5 0 10 6
10 14 0 8 15 40 33 73 95 167 161 332 223 558 l8 30 4 -39 c2 -22 -4 -82 -13
-135z m-6127 -128 c-1 -185 -3 -210 -8 -133 -12 148 -11 360 0 360 6 0 9 -81
8 -227z m72 187 c0 -5 -4 -10 -10 -10 -5 0 -10 5 -10 10 0 6 5 10 10 10 6 0
10 -4 10 -10z m4460 -170 c0 -14 7 -20 22 -20 12 0 29 -6 37 -13 9 -8 36 -22
60 -31 43 -17 44 -16 67 5 23 21 24 21 31 3 4 -10 26 -38 49 -60 l42 -41 22
21 23 21 -6 -23 c-3 -14 -1 -20 5 -16 7 4 9 -6 6 -29 -3 -31 -2 -34 11 -24 35
28 -109 -195 -171 -265 -18 -20 -69 -62 -113 -93 -80 -57 -182 -115 -171 -97
3 6 -9 10 -30 10 -44 0 -61 14 -39 32 20 17 19 27 -5 33 -11 3 -28 19 -37 36
-10 17 -26 31 -35 31 -20 0 -24 25 -7 36 14 8 6 50 -21 108 -12 25 -19 53 -16
64 6 16 3 19 -19 14 -24 -4 -25 -3 -18 29 3 19 16 46 27 60 12 14 30 38 41 53
32 45 48 60 90 92 22 16 50 38 63 49 20 17 47 28 85 34 4 0 7 -8 7 -19z m1277
-82 c-3 -8 -6 -5 -6 6 -1 11 2 17 5 13 3 -3 4 -12 1 -19z m-100 -120 c-3 -7
-5 -2 -5 12 0 14 2 19 5 13 2 -7 2 -19 0 -25z m446 -28 c3 -11 1 -18 -4 -14
-5 3 -9 12 -9 20 0 20 7 17 13 -6z m-6156 -122 c-3 -7 -5 -2 -5 12 0 14 2 19
5 13 2 -7 2 -19 0 -25z m0 -115 c-2 -16 -4 -5 -4 22 0 28 2 40 4 28 2 -13 2
-35 0 -50z m6009 -1370 c-11 -11 -19 6 -11 24 8 17 8 17 12 0 3 -10 2 -21 -1
-24z m484 -83 c0 -5 -9 -10 -21 -10 -11 0 -17 5 -14 10 3 6 13 10 21 10 8 0
14 -4 14 -10z m-207 -7 c-7 -2 -21 -2 -30 0 -10 3 -4 5 12 5 17 0 24 -2 18 -5z
m330 0 c-7 -2 -19 -2 -25 0 -7 3 -2 5 12 5 14 0 19 -2 13 -5z m-277 -85 c4 -7
4 -10 -1 -6 -4 4 -15 2 -24 -5 -14 -11 -14 -10 -2 6 16 20 18 21 27 5z m62 5
c-10 -2 -26 -2 -35 0 -10 3 -2 5 17 5 19 0 27 -2 18 -5z m138 -4 c2 -4 -1 -11
-7 -15 -8 -5 -9 -3 -4 6 6 9 4 12 -6 8 -8 -3 -34 -2 -59 2 -45 8 -45 8 13 7
32 -1 60 -5 63 -8z m49 -1 c5 4 5 1 1 -6 -6 -10 -11 -10 -22 -1 -8 6 -14 14
-14 16 0 3 6 0 13 -6 8 -6 18 -7 22 -3z m-321 -27 c4 -5 -3 -7 -14 -4 -23 6
-26 13 -6 13 8 0 17 -4 20 -9z m306 -1 c8 -5 11 -10 5 -10 -5 0 -17 5 -25 10
-8 5 -10 10 -5 10 6 0 17 -5 25 -10z m-5755 -49 c49 -28 75 -76 75 -137 0 -45
-3 -54 -17 -54 -23 0 -265 65 -286 76 -14 8 -13 15 11 59 15 28 31 49 35 47 4
-1 15 4 24 13 8 9 22 14 30 11 8 -3 11 -2 8 4 -9 15 87 0 120 -19z m5800 9
c10 -11 16 -20 13 -20 -3 0 -13 9 -23 20 -10 11 -16 20 -13 20 3 0 13 -9 23
-20z m-179 -25 c32 -13 66 -53 83 -98 12 -31 21 -27 -142 -62 -142 -30 -167
-31 -168 -7 -2 36 3 68 17 96 7 16 11 34 7 40 -3 6 -3 8 2 4 4 -4 22 0 39 10
78 42 95 44 162 17z m-5701 -190 c152 -39 190 -54 137 -55 -18 0 -47 -7 -64
-16 -47 -24 -118 -22 -156 4 -27 20 -72 79 -72 96 0 10 13 8 155 -29z m5812 4
c-11 -6 -40 -33 -65 -59 -63 -64 -111 -73 -189 -34 -39 19 -52 29 -44 37 11
11 248 65 291 66 23 0 23 -1 7 -10z"/>
<path d="M7663 8304 c-58 -21 -127 -85 -156 -144 -14 -27 -27 -47 -30 -44 -11
11 -29 -102 -24 -155 15 -169 138 -282 307 -284 122 -1 212 49 273 150 35 59
41 87 39 183 -3 101 -89 232 -184 281 -56 29 -166 35 -225 13z m131 -55 c40
-21 76 -63 86 -101 10 -35 7 -84 -4 -96 -7 -6 -262 56 -289 70 -12 6 -16 16
-11 30 3 11 7 27 8 34 1 8 8 20 16 27 12 10 12 9 5 -3 -6 -9 1 -3 15 12 14 15
36 32 50 37 29 11 93 5 124 -10z m-34 -224 c121 -31 152 -44 102 -45 -18 0
-43 -6 -55 -14 -63 -39 -165 -19 -203 41 -10 15 -21 30 -24 33 -3 3 -6 10 -7
16 -2 13 38 7 187 -31z"/>
<path d="M5340 5080 c0 -5 5 -10 10 -10 6 0 10 5 10 10 0 6 -4 10 -10 10 -5 0
-10 -4 -10 -10z"/>
<path d="M5300 5071 c0 -19 27 -31 51 -22 24 10 24 10 -3 10 -16 1 -28 6 -28
11 0 6 -4 10 -10 10 -5 0 -10 -4 -10 -9z"/>
<path d="M6830 5030 c0 -19 3 -21 12 -12 9 9 9 15 0 24 -9 9 -12 7 -12 -12z"/>
<path d="M3201 5014 c0 -11 3 -14 6 -6 3 7 2 16 -1 19 -3 4 -6 -2 -5 -13z"/>
<path d="M3182 5000 c0 -14 2 -19 5 -12 2 6 2 18 0 25 -3 6 -5 1 -5 -13z"/>
<path d="M7093 4540 c-11 -16 -10 -18 2 -14 8 4 15 12 15 20 0 19 -3 18 -17
-6z"/>
<path d="M3170 4113 c0 -5 12 -22 28 -39 15 -17 21 -23 15 -14 -7 9 -13 21
-13 27 0 6 -7 16 -15 23 -8 7 -15 8 -15 3z"/>
<path d="M3560 4070 c0 -5 5 -10 11 -10 5 0 7 5 4 10 -3 6 -8 10 -11 10 -2 0
-4 -4 -4 -10z"/>
<path d="M5462 3367 c-24 -5 -41 -15 -39 -21 5 -12 8 -12 48 -2 19 4 29 1 33
-9 3 -9 -1 -18 -9 -20 -8 -3 -22 -7 -30 -10 -32 -10 -15 -26 20 -19 27 5 35 3
35 -9 0 -9 -13 -17 -35 -21 -19 -4 -35 -11 -35 -16 0 -13 16 -12 63 1 35 9 38
13 32 37 -18 77 -26 102 -33 101 -4 -1 -26 -6 -50 -12z"/>
<path d="M4600 3336 c-17 -22 -8 -60 18 -71 33 -14 27 -28 -9 -20 -24 6 -30 4
-27 -6 3 -8 19 -14 38 -14 30 0 36 4 49 38 11 29 11 43 3 62 -13 28 -52 34
-72 11z m50 -25 c0 -11 -5 -23 -11 -27 -15 -9 -33 12 -26 30 9 23 37 20 37 -3z"/>
<path d="M5122 3338 c-17 -17 -15 -48 3 -48 8 0 15 7 15 15 0 8 -5 15 -11 15
-8 0 -8 5 1 15 15 18 9 20 -8 3z"/>
<path d="M4755 3270 c-4 -34 -6 -63 -4 -65 2 -2 16 -1 32 2 29 6 38 23 11 23
-13 0 -15 9 -12 47 5 72 -18 66 -27 -7z"/>
<path d="M5218 3323 c-28 -7 -21 -26 7 -21 30 6 32 -3 5 -27 -42 -38 -8 -101
40 -75 11 6 20 17 20 25 0 19 -16 19 -24 0 -6 -17 -36 -9 -36 9 0 7 11 23 25
36 32 30 33 60 3 59 -13 -1 -31 -3 -40 -6z"/>
<path d="M4882 3250 c-17 -38 -26 -70 -21 -70 5 0 23 30 39 66 33 73 34 74 21
74 -4 0 -22 -31 -39 -70z"/>
<path d="M4980 3300 c-15 -15 -18 -25 -11 -38 5 -9 7 -29 4 -44 -4 -20 0 -28
16 -33 12 -3 30 -3 42 0 16 5 20 13 16 33 -3 14 0 34 7 44 9 16 7 23 -13 39
-29 24 -36 24 -61 -1z m50 -25 c0 -19 -20 -29 -32 -17 -15 15 -2 43 17 36 8
-3 15 -12 15 -19z m0 -54 c0 -14 -18 -23 -30 -16 -6 4 -8 11 -5 16 8 12 35 12
35 0z"/>
<path d="M1090 5330 c-2 -119 -6 -179 -10 -155 -4 22 -8 36 -10 30 -1 -5 -8
35 -15 90 -9 77 -12 89 -14 50 l-1 -50 -520 3 -520 3 0 -1250 0 -1251 475 0
c416 0 475 2 475 15 0 8 7 15 15 15 8 0 15 -7 15 -15 0 -8 7 -15 16 -15 10 0
14 6 10 15 -3 8 -1 15 4 15 6 0 10 -8 10 -17 0 -15 2 -15 9 -4 8 12 10 12 13
0 3 -8 3 -2 1 14 -3 15 0 27 6 27 6 0 12 -8 12 -17 1 -10 5 -4 9 12 l8 30 1
-27 c0 -16 5 -28 10 -28 15 0 22 1000 13 1875 -5 457 -10 742 -12 635z m-110
-85 c0 -8 -4 -15 -10 -15 -5 0 -10 7 -10 15 0 8 5 15 10 15 6 0 10 -7 10 -15z
m60 0 c0 -8 -9 -15 -20 -15 -11 0 -20 7 -20 15 0 8 9 15 20 15 11 0 20 -7 20
-15z m-3 -31 c-3 -3 -12 -4 -19 -1 -8 3 -5 6 6 6 11 1 17 -2 13 -5z m50 -106
c-3 -8 -6 -5 -6 6 -1 11 2 17 5 13 3 -3 4 -12 1 -19z m-107 -2248 c0 -5 -7
-10 -15 -10 -8 0 -15 5 -15 10 0 6 7 10 15 10 8 0 15 -4 15 -10z m40 0 c0 -5
-7 -10 -15 -10 -8 0 -15 5 -15 10 0 6 7 10 15 10 8 0 15 -4 15 -10z"/>
<path d="M0 5380 c0 -7 167 -10 480 -10 313 0 480 3 480 10 0 7 -167 10 -480
10 -313 0 -480 -3 -480 -10z"/>
<path d="M980 5380 c0 -5 5 -10 10 -10 6 0 10 5 10 10 0 6 -4 10 -10 10 -5 0
-10 -4 -10 -10z"/>
<path d="M1074 5305 c0 -49 1 -71 3 -48 2 23 2 64 0 90 -2 26 -3 8 -3 -42z"/>
<path d="M8940 5380 c0 -7 183 -10 530 -10 347 0 530 3 530 10 0 7 -183 10
-530 10 -347 0 -530 -3 -530 -10z"/>
<path d="M8859 5140 c-8 -432 -8 -2124 0 -2225 4 -55 9 -88 9 -72 2 22 7 27
27 27 14 0 25 -4 25 -10 0 -5 -9 -10 -20 -10 -11 0 -20 -4 -20 -10 0 -5 9 -10
20 -10 12 0 20 -7 21 -17 0 -15 2 -15 9 2 7 17 9 17 9 3 1 -17 33 -18 531 -18
l530 0 0 1250 0 1251 -552 -1 c-304 -1 -558 -1 -565 0 -6 0 -13 17 -16 38 -2
20 -5 -69 -8 -198z m61 105 c0 -8 -7 -15 -15 -15 -8 0 -15 7 -15 15 0 8 7 15
15 15 8 0 15 -7 15 -15z m17 -7 c-3 -8 -6 -5 -6 6 -1 11 2 17 5 13 3 -3 4 -12
1 -19z m-20 -24 c-3 -3 -12 -4 -19 -1 -8 3 -5 6 6 6 11 1 17 -2 13 -5z"/>
<path d="M0 5350 c0 -7 167 -10 480 -10 313 0 480 3 480 10 0 7 -167 10 -480
10 -313 0 -480 -3 -480 -10z"/>
<path d="M980 5350 c0 -5 5 -10 10 -10 6 0 10 5 10 10 0 6 -4 10 -10 10 -5 0
-10 -4 -10 -10z"/>
<path d="M8940 5350 c0 -7 183 -10 530 -10 347 0 530 3 530 10 0 7 -183 10
-530 10 -347 0 -530 -3 -530 -10z"/>
<path d="M238 5313 c133 -2 351 -2 485 0 133 1 24 2 -243 2 -267 0 -376 -1
-242 -2z"/>
<path d="M9203 5313 c147 -2 387 -2 535 0 147 1 26 2 -268 2 -294 0 -415 -1
-267 -2z"/>
<path d="M1530 1716 c0 -2 8 -10 18 -17 15 -13 16 -12 3 4 -13 16 -21 21 -21
13z"/>
<path d="M8424 1676 c-88 -72 -180 -136 -198 -136 -22 0 -16 10 8 14 9 1 16 5
16 9 0 4 0 9 0 12 0 3 -11 -2 -25 -11 -21 -14 -23 -19 -13 -32 12 -14 10 -14
-12 -2 -24 13 -24 12 -10 -5 14 -17 13 -18 -4 -8 -15 8 -39 1 -120 -38 -56
-26 -155 -63 -221 -81 l-120 -32 -620 -6 c-1268 -11 -4698 -11 -4800 1 -129
14 -268 50 -385 101 -52 23 -100 45 -106 50 -6 5 -20 6 -30 2 -14 -4 -16 -4
-5 4 11 8 10 12 -7 21 -12 6 -23 7 -26 2 -4 -5 0 -12 6 -14 7 -3 8 -6 2 -6 -6
-1 -36 17 -68 39 -31 22 -59 40 -62 40 -6 0 -31 20 -51 42 -9 9 -21 14 -26 11
-5 -3 -13 1 -18 8 -7 11 -9 11 -9 -2 0 -10 -25 -28 -66 -48 -75 -36 -142 -79
-182 -119 -16 -15 -40 -37 -56 -49 -15 -12 -36 -39 -46 -58 l-19 -37 47 -20
c80 -36 273 -79 428 -97 162 -18 601 -72 714 -87 150 -19 413 -43 495 -45 39
0 108 -5 155 -9 47 -5 171 -12 275 -15 105 -3 210 -10 235 -15 25 -5 131 -11
235 -14 105 -3 255 -10 335 -16 185 -13 1392 -19 1695 -9 127 4 302 13 391 19
88 6 214 11 280 12 65 0 121 4 124 8 5 8 419 33 590 36 122 2 251 12 445 34
94 11 188 21 210 24 22 2 87 11 145 20 58 9 170 23 250 30 177 18 369 43 430
56 206 45 308 79 295 100 -3 4 1 10 7 13 8 3 1 15 -19 34 -18 16 -33 35 -33
41 0 7 -4 12 -8 12 -5 0 -21 12 -38 28 -57 54 -123 102 -138 102 -9 0 -19 7
-22 15 -4 8 -17 15 -29 15 -13 0 -26 4 -29 9 -9 14 -94 62 -126 71 -23 7 -34
3 -66 -24z m-6575 -192 c13 -11 -8 -10 -34 2 l-30 13 30 -6 c17 -3 32 -7 34
-9z m6291 2 c0 -2 -7 -7 -16 -10 -8 -3 -12 -2 -9 4 6 10 25 14 25 6z m-6216
-48 c-3 -4 -11 -5 -19 -1 -21 7 -19 12 4 10 11 0 18 -5 15 -9z"/>
<path d="M8347 1653 c-10 -9 -9 -23 1 -23 5 0 9 7 9 15 0 17 -1 18 -10 8z"/>
<path d="M8283 1603 c-10 -10 -13 -14 -6 -10 6 5 16 6 21 3 5 -3 9 1 9 9 0 19
-1 19 -24 -2z"/>
<path d="M1677 1581 c25 -25 63 -45 63 -31 0 10 -58 50 -73 50 -4 0 0 -8 10
-19z"/>
<path d="M0 10 c0 -7 1673 -10 5000 -10 3327 0 5000 3 5000 10 0 7 -1673 10
-5000 10 -3327 0 -5000 -3 -5000 -10z"/>
</g>
</svg>
