<svg xmlns="http://www.w3.org/2000/svg" version="1.1" xmlns:xlink="http://www.w3.org/1999/xlink" xmlns:svgjs="http://svgjs.dev/svgjs" width="2000" height="626" viewBox="0 0 2000 626"><g transform="matrix(1,0,0,1,-1.2121212121212466,0.5545239869488796)"><svg viewBox="0 0 396 124" data-background-color="#ffffff" preserveAspectRatio="xMidYMid meet" height="626" width="2000" xmlns="http://www.w3.org/2000/svg" xmlns:xlink="http://www.w3.org/1999/xlink"><g id="tight-bounds" transform="matrix(1,0,0,1,0.2400000000000091,-0.1098418121112843)"><svg viewBox="0 0 395.52 124.21940228720707" height="124.21940228720707" width="395.52"><g><svg viewBox="0 0 605.6865170225625 190.22556916960707" height="124.21940228720707" width="395.52"><g transform="matrix(1,0,0,1,210.16651702256254,26.290219762225007)"><svg viewBox="0 0 395.52 137.64512964515706" height="137.64512964515706" width="395.52"><g id="textblocktransform"><svg viewBox="0 0 395.52 137.64512964515706" height="137.64512964515706" width="395.52" id="textblock"><g><svg viewBox="0 0 395.52 84.46834008097166" height="84.46834008097166" width="395.52"><g transform="matrix(1,0,0,1,0,0)"><svg width="395.52" viewBox="2.9 -40.25 246.98 52.75" height="84.46834008097166" data-palette-color="#1f55b3"><path d="M3.65-0.55L2.9-11.75 4.75-11.75Q5.1-9.5 6.08-7.7 7.05-5.9 8.53-4.65 10-3.4 11.93-2.73 13.85-2.05 16.1-2.05L16.1-2.05Q19.8-2.05 21.95-3.8 24.1-5.55 24.1-8.55L24.1-8.55Q24.1-9.8 23.68-10.85 23.25-11.9 22.25-12.88 21.25-13.85 19.58-14.8 17.9-15.75 15.35-16.85L15.35-16.85Q12.25-18.2 10.15-19.45 8.05-20.7 6.8-22.05 5.55-23.4 5.03-24.93 4.5-26.45 4.5-28.4L4.5-28.4Q4.5-30.7 5.33-32.65 6.15-34.6 7.65-36.02 9.15-37.45 11.2-38.23 13.25-39 15.7-39L15.7-39Q17.9-39 19.8-38.3 21.7-37.6 23.65-36.05L23.65-36.05 24.95-38.3 26.1-38.3 26.65-28.35 24.8-28.35Q23.6-32.45 21.33-34.45 19.05-36.45 15.85-36.45L15.85-36.45Q12.8-36.45 11-34.95 9.2-33.45 9.2-30.9L9.2-30.9Q9.2-29.7 9.6-28.73 10-27.75 10.9-26.88 11.8-26 13.25-25.13 14.7-24.25 16.85-23.3L16.85-23.3Q20.55-21.65 23-20.23 25.45-18.8 26.9-17.38 28.35-15.95 28.95-14.38 29.55-12.8 29.55-10.85L29.55-10.85Q29.55-8.35 28.55-6.25 27.55-4.15 25.75-2.65 23.95-1.15 21.45-0.33 18.95 0.5 15.95 0.5L15.95 0.5Q13.1 0.5 10.83-0.3 8.55-1.1 6.2-3L6.2-3 4.8-0.55 3.65-0.55ZM43.05-14.55L43.05-7.85Q43.05-5.8 43.15-4.63 43.25-3.45 43.67-2.83 44.1-2.2 44.92-2 45.75-1.8 47.2-1.7L47.2-1.7 47.2 0 34.1 0 34.1-1.7Q35.5-1.8 36.32-2 37.15-2.2 37.6-2.8 38.05-3.4 38.17-4.5 38.3-5.6 38.3-7.5L38.3-7.5 38.3-14.15Q38.3-20.1 38-21.4L38-21.4Q37.85-22.05 37.62-22.48 37.4-22.9 36.95-23.13 36.5-23.35 35.8-23.43 35.1-23.5 34-23.5L34-23.5 34-25.1 42-27 42.6-22.05 42.8-22.05Q44.7-24.4 47.25-25.7 49.8-27 52.8-27L52.8-27Q55.1-27 57-26.25 58.9-25.5 59.9-24.2L59.9-24.2Q60.75-23.05 61.1-21.23 61.45-19.4 61.45-16.2L61.45-16.2 61.45-7.85Q61.45-5.8 61.57-4.63 61.7-3.45 62.1-2.83 62.5-2.2 63.32-2 64.15-1.8 65.5-1.7L65.5-1.7 65.5 0 52.55 0 52.55-1.7Q53.95-1.75 54.77-1.98 55.6-2.2 56.02-2.8 56.45-3.4 56.57-4.53 56.7-5.65 56.7-7.5L56.7-7.5 56.7-14.1Q56.7-16.95 56.4-18.9 56.1-20.85 55.42-22.05 54.75-23.25 53.65-23.78 52.55-24.3 51-24.3L51-24.3Q48.75-24.3 46.87-23.13 45-21.95 43.95-19.9L43.95-19.9Q43.7-19.4 43.52-18.95 43.35-18.5 43.25-17.9 43.15-17.3 43.1-16.53 43.05-15.75 43.05-14.55L43.05-14.55ZM84.15-10.85L84.15-14.8Q81.3-13.7 79.32-12.65 77.35-11.6 76.15-10.55 74.95-9.5 74.42-8.45 73.9-7.4 73.9-6.3L73.9-6.3Q73.9-4.65 75-3.6 76.1-2.55 77.9-2.55L77.9-2.55Q79.2-2.55 80.32-3.2 81.45-3.85 82.3-4.98 83.15-6.1 83.65-7.63 84.15-9.15 84.15-10.85L84.15-10.85ZM76.95-13.8L84.15-16.95 84.15-19Q84.15-25.1 78.95-25.1L78.95-25.1Q78.1-25.1 77.5-24.95 76.9-24.8 76.5-24.45 76.1-24.1 75.77-23.45 75.45-22.8 75.15-21.85L75.15-21.85Q74.6-20.4 74.07-19.93 73.55-19.45 72.55-19.45L72.55-19.45Q70.05-19.45 70.05-21.95L70.05-21.95Q70.05-24.35 72.6-25.68 75.15-27 79.85-27L79.85-27Q84.85-27 86.95-25.23 89.05-23.45 89.05-19.2L89.05-19.2 89.05-8Q89.05-2.3 91.3-2.3L91.3-2.3Q92-2.3 92.65-2.48 93.3-2.65 93.75-3.4L93.75-3.4 94.45-2.2Q93.85-1.05 92.25-0.28 90.65 0.5 88.9 0.5L88.9 0.5Q86.7 0.5 85.62-0.9 84.55-2.3 84.55-4.85L84.55-4.85 84.3-4.85Q83-2.4 80.7-0.98 78.4 0.45 75.6 0.45L75.6 0.45Q72.45 0.45 70.65-1.15 68.85-2.75 68.85-5.45L68.85-5.45Q68.85-6.65 69.27-7.75 69.7-8.85 70.65-9.85 71.6-10.85 73.15-11.83 74.7-12.8 76.95-13.8L76.95-13.8ZM104.89-26.8L104.89-22.9 105.09-22.9Q106.69-24.8 108.54-25.9 110.39-27 112.84-27L112.84-27Q115.69-27 118.07-25.98 120.44-24.95 122.19-23.1 123.94-21.25 124.92-18.73 125.89-16.2 125.89-13.2L125.89-13.2Q125.89-10.15 124.89-7.63 123.89-5.1 122.14-3.3 120.39-1.5 117.99-0.5 115.59 0.5 112.79 0.5L112.79 0.5Q110.49 0.5 108.62-0.28 106.74-1.05 105.09-2.8L105.09-2.8 105.09 4.5Q105.09 6.5 105.29 7.7 105.49 8.9 106.09 9.55 106.69 10.2 107.82 10.45 108.94 10.7 110.79 10.75L110.79 10.75 110.79 12.5 95.39 12.5 95.39 10.75Q96.89 10.7 97.82 10.45 98.74 10.2 99.27 9.55 99.79 8.9 99.99 7.78 100.19 6.65 100.19 4.85L100.19 4.85 100.19-13.85Q100.19-16.75 100.12-18.6 100.04-20.45 99.84-21.15L99.84-21.15Q99.59-22.35 98.69-22.78 97.79-23.2 95.29-23.2L95.29-23.2 95.29-24.9 104.89-26.8ZM106.39-21.45L106.39-21.45Q105.74-20.45 105.42-19.07 105.09-17.7 105.09-15.5L105.09-15.5 105.09-11.6Q105.09-10.25 105.17-9.28 105.24-8.3 105.39-7.6 105.54-6.9 105.79-6.35 106.04-5.8 106.44-5.3L106.44-5.3Q107.59-3.7 109.19-2.83 110.79-1.95 112.54-1.95L112.54-1.95Q115.99-1.95 118.12-4.85 120.24-7.75 120.24-13L120.24-13Q120.24-15.6 119.67-17.73 119.09-19.85 118.04-21.38 116.99-22.9 115.52-23.75 114.04-24.6 112.24-24.6L112.24-24.6Q110.44-24.6 108.92-23.78 107.39-22.95 106.39-21.45ZM136.49-30.15L145.39-7.65 154.19-29.35Q154.94-31.2 155.24-32.25 155.54-33.3 155.54-34.15L155.54-34.15Q155.54-35.5 154.72-36.05 153.89-36.6 151.64-36.6L151.64-36.6 151.64-38.5 163.79-38.5 163.79-36.6Q162.64-36.45 161.82-36.2 160.99-35.95 160.37-35.5 159.74-35.05 159.27-34.33 158.79-33.6 158.34-32.55L158.34-32.55 144.79 0.5 143.04 0.5 130.14-30.65Q129.49-32.15 128.87-33.25 128.24-34.35 127.49-35.05 126.74-35.75 125.79-36.1 124.84-36.45 123.54-36.55L123.54-36.55 123.54-38.5 139.84-38.5 139.84-36.55Q138.44-36.55 137.57-36.43 136.69-36.3 136.19-36.02 135.69-35.75 135.49-35.35 135.29-34.95 135.29-34.45L135.29-34.45Q135.29-33.75 135.54-32.83 135.79-31.9 136.49-30.15L136.49-30.15ZM174.34-27L174.34-7.95Q174.34-6 174.51-4.83 174.69-3.65 175.19-2.98 175.69-2.3 176.59-2.05 177.49-1.8 178.99-1.75L178.99-1.75 178.99 0 164.64 0 164.64-1.75Q166.14-1.8 167.09-2.08 168.04-2.35 168.56-2.98 169.09-3.6 169.26-4.73 169.44-5.85 169.44-7.6L169.44-7.6 169.44-14Q169.44-16.9 169.36-18.78 169.29-20.65 169.09-21.35L169.09-21.35Q168.84-22.5 167.94-22.93 167.04-23.35 164.54-23.35L164.54-23.35 164.54-25.1 174.34-27ZM168.59-37.15L168.59-37.15Q168.59-38.45 169.49-39.35 170.39-40.25 171.69-40.25L171.69-40.25Q172.99-40.25 173.89-39.35 174.79-38.45 174.79-37.15L174.79-37.15Q174.79-35.85 173.89-34.95 172.99-34.05 171.69-34.05L171.69-34.05Q170.39-34.05 169.49-34.95 168.59-35.85 168.59-37.15ZM204.54-6.05L206.09-4.65Q201.84 0.5 195.54 0.5L195.54 0.5Q192.59 0.5 190.19-0.48 187.79-1.45 186.06-3.23 184.34-5 183.39-7.48 182.44-9.95 182.44-12.95L182.44-12.95Q182.44-16 183.44-18.6 184.44-21.2 186.26-23.05 188.09-24.9 190.61-25.95 193.14-27 196.14-27L196.14-27Q200.99-27 203.64-24.38 206.29-21.75 206.29-16.85L206.29-16.85Q206.29-16.15 206.01-16 205.74-15.85 204.74-15.85L204.74-15.85 188.29-15.85Q188.19-15.45 188.14-14.88 188.09-14.3 188.09-13.6L188.09-13.6Q188.09-11 188.71-8.88 189.34-6.75 190.51-5.25 191.69-3.75 193.31-2.93 194.94-2.1 196.94-2.1L196.94-2.1Q199.04-2.1 200.84-3.03 202.64-3.95 204.54-6.05L204.54-6.05ZM188.64-18.15L197.84-18.15Q198.84-18.15 199.44-18.2 200.04-18.25 200.34-18.4 200.64-18.55 200.74-18.82 200.84-19.1 200.84-19.55L200.84-19.55Q200.84-21.85 199.36-23.23 197.89-24.6 195.34-24.6L195.34-24.6Q189.94-24.6 188.64-18.15L188.64-18.15ZM229.23-17.95L221.88 0.5 220.03 0.5 213.53-20.3Q213.08-21.7 212.68-22.55 212.28-23.4 211.73-23.9 211.18-24.4 210.43-24.58 209.68-24.75 208.58-24.75L208.58-24.75 208.58-26.5 221.83-26.5 221.83-24.75Q219.88-24.75 219.08-24.3 218.28-23.85 218.28-22.75L218.28-22.75Q218.28-22.25 218.43-21.58 218.58-20.9 218.83-19.9L218.83-19.9 222.23-7.95 222.43-7.95 229.78-26.5 231.33-26.5 237.98-7.95 238.18-7.95 241.18-16.05Q241.78-17.7 242.18-18.82 242.58-19.95 242.81-20.73 243.03-21.5 243.13-22 243.23-22.5 243.23-22.95L243.23-22.95Q243.23-24.05 242.58-24.4 241.93-24.75 239.88-24.75L239.88-24.75 239.88-26.5 249.88-26.5 249.88-24.75Q249.13-24.75 248.61-24.53 248.08-24.3 247.56-23.65 247.03-23 246.48-21.8 245.93-20.6 245.13-18.65L245.13-18.65 237.38 0.5 235.53 0.5 229.43-17.95 229.23-17.95Z" opacity="1" transform="matrix(1,0,0,1,0,0)" fill="#1f55b3" class="wordmark-text-0" data-fill-palette-color="primary" id="text-0"></path></svg></g></svg></g><g transform="matrix(1,0,0,1,69.21599999999998,104.40928793392712)"><svg viewBox="0 0 257.088 33.23584171122995" height="33.23584171122995" width="257.088"><g transform="matrix(1,0,0,1,0,0)"><svg width="257.088" viewBox="-1.75 -36.05 373.96 48.349999999999994" height="33.23584171122995" data-palette-color="#ff585f"><path d="M29.5-0.9L33.65-0.4 33.65 0 21.4 0 21.4-0.4 25.5-0.9 20.8-13.7 8.7-13.7 4.55-2.65Q4.35-2.1 4.35-1.75L4.35-1.75Q4.35-1.2 4.67-0.98 5-0.75 5.85-0.65L5.85-0.65 8.9-0.4 8.9 0-1.75 0-1.75-0.4 1.05-0.65Q2.3-0.75 2.83-1.15 3.35-1.55 3.75-2.65L3.75-2.65 16-35.3 16.9-35.3 29.5-0.9ZM9-14.5L20.5-14.5 14.9-29.75 14.7-29.75 9-14.5ZM68.2-34.5L69-24.55 68.59-24.5 65.59-32.05Q65.15-33.2 64.62-33.55 64.09-33.9 62.9-33.9L62.9-33.9 52.75-33.9 52.75-18.55 60-18.55Q61.2-18.55 61.7-18.95 62.2-19.35 62.4-20.5L62.4-20.5 63.25-24.55 63.84-24.55 63.84-11.75 63.25-11.75 62.4-15.8Q62.2-16.95 61.7-17.35 61.2-17.75 60-17.75L60-17.75 52.75-17.75 52.75-0.8 57.65-0.4 57.65 0 44.8 0 44.8-0.4 48.9-0.8 48.9-33.7 44.8-34.1 44.8-34.5 68.2-34.5ZM81.99-21.7Q82.99-21.7 83.69-21.03 84.39-20.35 84.39-19.4L84.39-19.4Q84.39-18.6 83.84-18.05 83.29-17.5 82.49-17.5L82.49-17.5Q81.99-17.5 81.67-17.73 81.34-17.95 80.99-18.4L80.99-18.4Q80.64-18.8 80.37-19 80.09-19.2 79.69-19.2L79.69-19.2Q78.89-19.2 78.07-18.25 77.24-17.3 76.89-16.05L76.89-16.05 76.89-0.8 80.89-0.4 80.89 0 70.59 0 70.59-0.4 73.64-0.8 73.64-18.3 70.69-19.4 70.69-19.75 76.34-21.7 76.74-21.7 76.74-17.3Q79.54-21.7 81.99-21.7L81.99-21.7ZM88.34-28.9Q88.34-29.95 89.02-30.63 89.69-31.3 90.74-31.3L90.74-31.3Q91.79-31.3 92.47-30.63 93.14-29.95 93.14-28.9L93.14-28.9Q93.14-27.85 92.47-27.18 91.79-26.5 90.74-26.5L90.74-26.5Q89.69-26.5 89.02-27.18 88.34-27.85 88.34-28.9L88.34-28.9ZM92.64-0.8L92.64-21.7 92.24-21.7 86.44-19.75 86.44-19.4 89.39-18.3 89.39-0.8 86.34-0.4 86.34 0 95.69 0 95.69-0.4 92.64-0.8ZM115.04-5.1L115.49-5.7 115.69-5.6 115.49-5.05Q114.49-2.4 112.51-0.95 110.54 0.5 107.79 0.5L107.79 0.5Q105.09 0.5 102.99-0.9 100.89-2.3 99.71-4.8 98.54-7.3 98.54-10.55L98.54-10.55Q98.54-13.8 99.79-16.35 101.04-18.9 103.34-20.3 105.64-21.7 108.59-21.7L108.59-21.7Q112.09-21.7 113.96-19.63 115.84-17.55 115.89-13.6L115.89-13.6 115.59-13.35 102.09-13.35Q101.99-12.05 101.99-11.3L101.99-11.3Q101.99-6.75 103.84-4.38 105.69-2 108.99-2L108.99-2Q110.69-2 112.26-2.78 113.84-3.55 115.04-5.1L115.04-5.1ZM108.04-21.15Q105.69-21.15 104.14-19.2 102.59-17.25 102.14-13.9L102.14-13.9 111.84-14.25Q111.99-14.85 111.99-16.25L111.99-16.25Q111.99-18.95 110.96-20.05 109.94-21.15 108.04-21.15L108.04-21.15ZM136.99-0.8L139.99-0.4 139.99 0 130.69 0 130.69-0.4 133.74-0.8 133.74-13.55Q133.74-15.5 133.64-16.45 133.54-17.4 133.24-18.05L133.24-18.05Q132.84-18.9 131.91-19.38 130.99-19.85 129.79-19.85L129.79-19.85Q127.24-19.85 125.24-17.7L125.24-17.7 125.24-0.8 128.29-0.4 128.29 0 118.94 0 118.94-0.4 121.99-0.8 121.99-18.05 119.04-19.15 119.04-19.5 124.69-21.45 125.09-21.45 125.09-18.3Q128.29-21.7 131.79-21.7L131.79-21.7Q133.34-21.7 134.61-21.03 135.89-20.35 136.44-19.25L136.44-19.25Q136.79-18.6 136.89-17.48 136.99-16.35 136.99-13.55L136.99-13.55 136.99-0.8ZM151.08 0.5Q152.98 0.5 154.61-0.45 156.23-1.4 157.38-3.2L157.38-3.2 157.53-3.15 157.53 0.25 157.83 0.25 163.28-2.25 163.28-2.5 160.53-3.1 160.53-36.05 160.13-36.05 154.33-34.1 154.33-33.75 157.28-32.65 157.28-21.1Q155.33-21.7 153.38-21.7L153.38-21.7Q150.28-21.7 147.86-20.25 145.43-18.8 144.11-16.18 142.78-13.55 142.78-10.2L142.78-10.2Q142.78-7.15 143.86-4.73 144.93-2.3 146.83-0.9 148.73 0.5 151.08 0.5L151.08 0.5ZM152.83-1.5Q149.78-1.5 148.06-4.03 146.33-6.55 146.33-10.9L146.33-10.9Q146.33-15.55 148.26-18.38 150.18-21.2 153.33-21.2L153.33-21.2Q155.23-21.2 156.26-20.03 157.28-18.85 157.28-16.65L157.28-16.65 157.28-3.85Q156.63-2.75 155.46-2.13 154.28-1.5 152.83-1.5L152.83-1.5ZM171.58-0.8L171.58-36.05 171.18-36.05 165.38-34.1 165.38-33.75 168.33-32.65 168.33-0.8 165.28-0.4 165.28 0 174.63 0 174.63-0.4 171.58-0.8ZM187.68-3.65L182.38-18.65Q182.03-19.65 182.03-19.95L182.03-19.95Q182.03-20.35 182.55-20.53 183.08-20.7 184.88-20.8L184.88-20.8 184.88-21.2 175.23-21.2 175.23-20.8Q176.93-20.7 177.55-20.38 178.18-20.05 178.58-19.1L178.58-19.1 186.28 0.9 184.33 6.85Q183.68 8.8 183.13 9.63 182.58 10.45 181.93 10.45L181.93 10.45Q181.48 10.45 181.25 10.13 181.03 9.8 180.83 9.1L180.83 9.1Q180.58 8.2 180.18 7.7 179.78 7.2 178.83 7.2L178.83 7.2Q177.83 7.2 177.25 7.8 176.68 8.4 176.68 9.4L176.68 9.4Q176.68 10.65 177.63 11.48 178.58 12.3 179.98 12.3L179.98 12.3Q181.68 12.3 182.98 10.85L182.98 10.85Q184.03 9.85 184.88 7.2L184.88 7.2 193.23-17.35Q193.78-19.05 194.78-19.75 195.78-20.45 198.18-20.8L198.18-20.8 198.18-21.2 189.23-21.2 189.23-20.8Q191.23-20.5 191.98-20.13 192.73-19.75 192.73-18.95L192.73-18.95Q192.73-18.4 192.43-17.4L192.43-17.4 187.88-3.65 187.68-3.65ZM235.82-10.55L236.37-10.5 235.12 0 210.62 0 210.62-0.4 214.72-0.8 214.72-33.7 210.62-34.1 210.62-34.5 235.17-34.5 235.87-25.1 235.37-25.05 232.57-32.05Q232.12-33.2 231.6-33.55 231.07-33.9 229.87-33.9L229.87-33.9 218.57-33.9 218.57-18.55 225.97-18.55Q227.17-18.55 227.67-18.95 228.17-19.35 228.37-20.5L228.37-20.5 229.22-24.55 229.82-24.55 229.82-11.75 229.22-11.75 228.37-15.8Q228.17-16.95 227.67-17.35 227.17-17.75 225.97-17.75L225.97-17.75 218.57-17.75 218.57-0.6 229.77-0.6Q230.97-0.6 231.52-0.98 232.07-1.35 232.52-2.45L232.52-2.45 235.82-10.55ZM258.77-2.1Q259.32-1.25 260-0.93 260.67-0.6 262.22-0.4L262.22-0.4 262.22 0 252.97 0 252.97-0.4Q254.42-0.55 254.87-0.7 255.32-0.85 255.32-1.2L255.32-1.2Q255.32-1.6 254.72-2.55L254.72-2.55 250.12-9.55 245.42-3.25Q244.72-2.3 244.72-1.8L244.72-1.8Q244.72-1.3 245.35-1 245.97-0.7 247.62-0.4L247.62-0.4 247.62 0 239.37 0 239.37-0.4Q241.37-0.75 242.42-1.3 243.47-1.85 244.42-3.1L244.42-3.1 249.72-10.1 243.77-19.1Q243.22-19.95 242.52-20.28 241.82-20.6 240.27-20.8L240.27-20.8 240.27-21.2 249.52-21.2 249.52-20.8Q248.07-20.65 247.62-20.5 247.17-20.35 247.17-20L247.17-20Q247.17-19.6 247.77-18.65L247.77-18.65 251.57-12.9 255.42-17.95Q256.12-18.9 256.12-19.4L256.12-19.4Q256.12-19.9 255.5-20.2 254.87-20.5 253.22-20.8L253.22-20.8 253.22-21.2 261.47-21.2 261.47-20.8Q259.47-20.45 258.42-19.9 257.37-19.35 256.42-18.1L256.42-18.1 251.97-12.3 258.77-2.1ZM269.52-0.4Q271.57 0.5 273.62 0.5L273.62 0.5Q276.57 0.5 278.92-1 281.27-2.5 282.57-5.15 283.87-7.8 283.87-11.2L283.87-11.2Q283.87-14.2 282.87-16.6 281.87-19 280.07-20.35 278.27-21.7 276.07-21.7L276.07-21.7Q274.12-21.7 272.39-20.75 270.67-19.8 269.57-18.15L269.57-18.15 269.37-18.15 269.37-21.7 268.97-21.7 263.32-19.75 263.32-19.4 266.27-18.3 266.27 10.9 263.22 11.3 263.22 11.7 274.02 11.7 274.02 11.35 269.52 10.8 269.52-0.4ZM273.97 0Q272.17 0 270.84-1.05 269.52-2.1 269.52-3.55L269.52-3.55 269.52-17.2Q270.12-18.6 271.37-19.4 272.62-20.2 274.17-20.2L274.17-20.2Q276.92-20.2 278.57-17.55 280.22-14.9 280.22-10.5L280.22-10.5Q280.22-7.5 279.42-5.1 278.62-2.7 277.19-1.35 275.77 0 273.97 0L273.97 0ZM293.12-0.8L293.12-36.05 292.72-36.05 286.92-34.1 286.92-33.75 289.87-32.65 289.87-0.8 286.82-0.4 286.82 0 296.17 0 296.17-0.4 293.12-0.8ZM308.96-21.7Q311.86-21.7 314.11-20.3 316.36-18.9 317.61-16.38 318.86-13.85 318.86-10.6L318.86-10.6Q318.86-7.35 317.61-4.83 316.36-2.3 314.11-0.9 311.86 0.5 308.96 0.5L308.96 0.5Q306.06 0.5 303.81-0.9 301.56-2.3 300.31-4.83 299.06-7.35 299.06-10.6L299.06-10.6Q299.06-13.85 300.31-16.38 301.56-18.9 303.81-20.3 306.06-21.7 308.96-21.7L308.96-21.7ZM302.76-10.6Q302.76-5.6 304.41-2.8 306.06 0 308.96 0L308.96 0Q311.86 0 313.51-2.8 315.16-5.6 315.16-10.6L315.16-10.6Q315.16-15.6 313.51-18.4 311.86-21.2 308.96-21.2L308.96-21.2Q306.06-21.2 304.41-18.4 302.76-15.6 302.76-10.6L302.76-10.6ZM333.51-21.7Q334.51-21.7 335.21-21.03 335.91-20.35 335.91-19.4L335.91-19.4Q335.91-18.6 335.36-18.05 334.81-17.5 334.01-17.5L334.01-17.5Q333.51-17.5 333.19-17.73 332.86-17.95 332.51-18.4L332.51-18.4Q332.16-18.8 331.89-19 331.61-19.2 331.21-19.2L331.21-19.2Q330.41-19.2 329.59-18.25 328.76-17.3 328.41-16.05L328.41-16.05 328.41-0.8 332.41-0.4 332.41 0 322.11 0 322.11-0.4 325.16-0.8 325.16-18.3 322.21-19.4 322.21-19.75 327.86-21.7 328.26-21.7 328.26-17.3Q331.06-21.7 333.51-21.7L333.51-21.7ZM354.51-5.1L354.96-5.7 355.16-5.6 354.96-5.05Q353.96-2.4 351.98-0.95 350.01 0.5 347.26 0.5L347.26 0.5Q344.56 0.5 342.46-0.9 340.36-2.3 339.18-4.8 338.01-7.3 338.01-10.55L338.01-10.55Q338.01-13.8 339.26-16.35 340.51-18.9 342.81-20.3 345.11-21.7 348.06-21.7L348.06-21.7Q351.56-21.7 353.43-19.63 355.31-17.55 355.36-13.6L355.36-13.6 355.06-13.35 341.56-13.35Q341.46-12.05 341.46-11.3L341.46-11.3Q341.46-6.75 343.31-4.38 345.16-2 348.46-2L348.46-2Q350.16-2 351.73-2.78 353.31-3.55 354.51-5.1L354.51-5.1ZM347.51-21.15Q345.16-21.15 343.61-19.2 342.06-17.25 341.61-13.9L341.61-13.9 351.31-14.25Q351.46-14.85 351.46-16.25L351.46-16.25Q351.46-18.95 350.43-20.05 349.41-21.15 347.51-21.15L347.51-21.15ZM369.81-21.7Q370.81-21.7 371.51-21.03 372.21-20.35 372.21-19.4L372.21-19.4Q372.21-18.6 371.66-18.05 371.11-17.5 370.31-17.5L370.31-17.5Q369.81-17.5 369.48-17.73 369.16-17.95 368.81-18.4L368.81-18.4Q368.46-18.8 368.18-19 367.91-19.2 367.51-19.2L367.51-19.2Q366.71-19.2 365.88-18.25 365.06-17.3 364.71-16.05L364.71-16.05 364.71-0.8 368.71-0.4 368.71 0 358.41 0 358.41-0.4 361.46-0.8 361.46-18.3 358.51-19.4 358.51-19.75 364.16-21.7 364.56-21.7 364.56-17.3Q367.36-21.7 369.81-21.7L369.81-21.7Z" opacity="1" transform="matrix(1,0,0,1,0,0)" fill="#ff585f" class="slogan-text-1" data-fill-palette-color="secondary" id="text-1"></path></svg></g></svg></g></svg></g></svg></g><g><svg viewBox="0 0 190.22556916960707 190.22556916960707" height="190.22556916960707" width="190.22556916960707"><g><svg></svg></g><g id="icon-0"><svg viewBox="0 0 190.22556916960707 190.22556916960707" height="190.22556916960707" width="190.22556916960707"><g><path transform="scale(1.90226,1.90226)" d="M30 100c-16.569 0-30-13.431-30-30v-40c0-16.569 13.431-30 30-30h40c16.569 0 30 13.431 30 30v40c0 16.569-13.431 30-30 30z" fill="#ff585f" fill-rule="nonzero" stroke="none" stroke-width="1" stroke-linecap="butt" stroke-linejoin="miter" stroke-miterlimit="10" stroke-dasharray="" stroke-dashoffset="0" font-family="none" font-weight="none" font-size="none" text-anchor="none" style="mix-blend-mode: normal" data-fill-palette-color="accent"></path></g><g transform="matrix(1,0,0,1,38.04511383392141,52.86700995539277)"><svg viewBox="0 0 114.13534150176424 84.49154925882154" height="84.49154925882154" width="114.13534150176424"><g><svg xmlns="http://www.w3.org/2000/svg" xmlns:xlink="http://www.w3.org/1999/xlink" version="1.1" x="0" y="0" viewBox="2.513 14.345 95.86301329214935 70.965" enable-background="new 0 0 100 100" xml:space="preserve" height="84.49154925882154" width="114.13534150176424" class="icon-cg-0" data-fill-palette-color="quaternary" id="cg-0"><path d="M37.709 53.282c0 10.753 8.744 19.503 19.503 19.503 10.748 0 19.495-8.75 19.495-19.503 0-10.755-8.747-19.502-19.495-19.502C46.453 33.78 37.709 42.527 37.709 53.282zM69.604 53.449c0 6.925-5.617 12.542-12.539 12.542-6.923 0-12.534-5.617-12.534-12.542 0-6.927 5.61-12.534 12.534-12.534C63.986 40.916 69.604 46.522 69.604 53.449z" fill="#ffffff" data-fill-palette-color="quaternary"></path><path d="M76.187 14.345h-26.08c-1.622 0-2.932 1.314-2.932 2.932v5.952h-5.296V15.02c0-0.294-0.237-0.528-0.528-0.528H22.032c-0.294 0-0.535 0.234-0.535 0.528v8.208h-3.521v-3.595c0-0.293-0.241-0.531-0.531-0.531H6.512c-0.287 0-0.531 0.238-0.531 0.531v3.595H5.455c-1.622 0-2.942 1.32-2.942 2.942v53.366c0 1.621 1.32 2.936 2.942 2.936h38.658c3.999 1.812 8.429 2.838 13.105 2.838 4.685 0 9.116-1.026 13.115-2.838h25.11c1.615 0 2.933-1.314 2.933-2.936V26.17C98.377 24.549 98.377 14.525 76.187 14.345zM57.213 77.821c-13.535 0-24.542-11.011-24.542-24.539 0-13.53 11.007-24.534 24.542-24.534 13.521 0 24.537 11.003 24.537 24.534C81.75 66.811 70.733 77.821 57.213 77.821zM88.227 31.774H75.952v-9.405h12.274V31.774z" fill="#ffffff" data-fill-palette-color="quaternary"></path></svg></g></svg></g></svg></g></svg></g></svg></g><defs></defs></svg><rect width="395.52" height="124.21940228720707" fill="none" stroke="none" visibility="hidden"></rect></g></svg></g></svg>